<?xml version="1.0" encoding="UTF-8"?>
<svg version="1.1" xmlns="http://www.w3.org/2000/svg" width="520" height="504">
<path d="M0 0 C27.06 0 54.12 0 82 0 C82 27.06 82 54.12 82 82 C54.94 82 27.88 82 0 82 C0 54.94 0 27.88 0 0 Z " fill="#03A4EF" transform="translate(132,393)"/>
<path d="M0 0 C27.06 0 54.12 0 82 0 C82 27.06 82 54.12 82 82 C54.94 82 27.88 82 0 82 C0 54.94 0 27.88 0 0 Z " fill="#6A6DAD" transform="translate(44,393)"/>
<path d="M0 0 C27.06 0 54.12 0 82 0 C82 27.06 82 54.12 82 82 C54.94 82 27.88 82 0 82 C0 54.94 0 27.88 0 0 Z " fill="#03A4EF" transform="translate(132,305)"/>
<path d="M0 0 C27.06 0 54.12 0 82 0 C82 27.06 82 54.12 82 82 C54.94 82 27.88 82 0 82 C0 54.94 0 27.88 0 0 Z " fill="#6A6DAD" transform="translate(44,305)"/>
<path d="M0 0 C27.06 0 54.12 0 82 0 C82 27.06 82 54.12 82 82 C54.94 82 27.88 82 0 82 C0 54.94 0 27.88 0 0 Z " fill="#03A4EF" transform="translate(132,217)"/>
<path d="M0 0 C27.06 0 54.12 0 82 0 C82 27.06 82 54.12 82 82 C54.94 82 27.88 82 0 82 C0 54.94 0 27.88 0 0 Z " fill="#6A6DAD" transform="translate(44,217)"/>
<path d="M0 0 C27.06 0 54.12 0 82 0 C82 27.06 82 54.12 82 82 C54.94 82 27.88 82 0 82 C0 54.94 0 27.88 0 0 Z " fill="#03A4EF" transform="translate(132,130)"/>
<path d="M0 0 C27.06 0 54.12 0 82 0 C82 27.06 82 54.12 82 82 C54.94 82 27.88 82 0 82 C0 54.94 0 27.88 0 0 Z " fill="#6A6DAD" transform="translate(44,130)"/>
<path d="M0 0 C27.06 0 54.12 0 82 0 C82 27.06 82 54.12 82 82 C54.94 82 27.88 82 0 82 C0 54.94 0 27.88 0 0 Z " fill="#03A4EF" transform="translate(132,42)"/>
<path d="M0 0 C27.06 0 54.12 0 82 0 C82 27.06 82 54.12 82 82 C54.94 82 27.88 82 0 82 C0 54.94 0 27.88 0 0 Z " fill="#6A6DAD" transform="translate(44,42)"/>
<path d="M0 0 C26.4 0 52.8 0 80 0 C80 27.06 80 54.12 80 82 C53.6 82 27.2 82 0 82 C0 54.94 0 27.88 0 0 Z " fill="#FEBB0A" transform="translate(394,393)"/>
<path d="M0 0 C26.4 0 52.8 0 80 0 C80 27.06 80 54.12 80 82 C53.6 82 27.2 82 0 82 C0 54.94 0 27.88 0 0 Z " fill="#FEBB0A" transform="translate(394,305)"/>
<path d="M0 0 C26.4 0 52.8 0 80 0 C80 27.06 80 54.12 80 82 C53.6 82 27.2 82 0 82 C0 54.94 0 27.88 0 0 Z " fill="#FEBB0A" transform="translate(394,217)"/>
<path d="M0 0 C26.4 0 52.8 0 80 0 C80 27.06 80 54.12 80 82 C53.6 82 27.2 82 0 82 C0 54.94 0 27.88 0 0 Z " fill="#FEBB0A" transform="translate(394,130)"/>
<path d="M0 0 C26.4 0 52.8 0 80 0 C80 27.06 80 54.12 80 82 C53.6 82 27.2 82 0 82 C0 54.94 0 27.88 0 0 Z " fill="#FEBB0A" transform="translate(394,42)"/>
<path d="M0 0 C26.4 0 52.8 0 80 0 C80 26.4 80 52.8 80 80 C53.6 80 27.2 80 0 80 C0 53.6 0 27.2 0 0 Z " fill="#81BB04" transform="translate(307,393)"/>
<path d="M0 0 C26.4 0 52.8 0 80 0 C80 26.4 80 52.8 80 80 C53.6 80 27.2 80 0 80 C0 53.6 0 27.2 0 0 Z " fill="#81BB04" transform="translate(307,306)"/>
<path d="M0 0 C26.4 0 52.8 0 80 0 C80 26.4 80 52.8 80 80 C53.6 80 27.2 80 0 80 C0 53.6 0 27.2 0 0 Z " fill="#81BB04" transform="translate(307,218)"/>
<path d="M0 0 C26.4 0 52.8 0 80 0 C80 26.4 80 52.8 80 80 C53.6 80 27.2 80 0 80 C0 53.6 0 27.2 0 0 Z " fill="#81BB04" transform="translate(307,130)"/>
<path d="M0 0 C26.4 0 52.8 0 80 0 C80 26.4 80 52.8 80 80 C53.6 80 27.2 80 0 80 C0 53.6 0 27.2 0 0 Z " fill="#81BB04" transform="translate(307,42)"/>
<path d="M0 0 C26.07 0 52.14 0 79 0 C79 26.07 79 52.14 79 79 C52.93 79 26.86 79 0 79 C0 52.93 0 26.86 0 0 Z " fill="#F15021" transform="translate(220,394)"/>
<path d="M0 0 C26.07 0 52.14 0 79 0 C79 26.07 79 52.14 79 79 C52.93 79 26.86 79 0 79 C0 52.93 0 26.86 0 0 Z " fill="#F15021" transform="translate(220,306)"/>
<path d="M0 0 C26.07 0 52.14 0 79 0 C79 26.07 79 52.14 79 79 C52.93 79 26.86 79 0 79 C0 52.93 0 26.86 0 0 Z " fill="#F15021" transform="translate(220,218)"/>
<path d="M0 0 C26.07 0 52.14 0 79 0 C79 26.07 79 52.14 79 79 C52.93 79 26.86 79 0 79 C0 52.93 0 26.86 0 0 Z " fill="#F15021" transform="translate(220,131)"/>
<path d="M0 0 C26.07 0 52.14 0 79 0 C79 26.07 79 52.14 79 79 C52.93 79 26.86 79 0 79 C0 52.93 0 26.86 0 0 Z " fill="#F15021" transform="translate(220,41)"/>
<path d="M0 0 C27.06 0 54.12 0 82 0 C82 27.06 82 54.12 82 82 C54.94 82 27.88 82 0 82 C0 54.94 0 27.88 0 0 Z M1 1 C1 27.07 1 53.14 1 80 C27.07 80 53.14 80 80 80 C80 53.93 80 27.86 80 1 C53.93 1 27.86 1 1 1 Z " fill="#DCF2FD" transform="translate(132,393)"/>
<path d="M0 0 C27.06 0 54.12 0 82 0 C82 27.06 82 54.12 82 82 C54.94 82 27.88 82 0 82 C0 54.94 0 27.88 0 0 Z M1 1 C1 27.07 1 53.14 1 80 C27.07 80 53.14 80 80 80 C80 53.93 80 27.86 80 1 C53.93 1 27.86 1 1 1 Z " fill="#DCF2FD" transform="translate(132,305)"/>
<path d="M0 0 C27.06 0 54.12 0 82 0 C82 27.06 82 54.12 82 82 C54.94 82 27.88 82 0 82 C0 54.94 0 27.88 0 0 Z M1 1 C1 27.07 1 53.14 1 80 C27.07 80 53.14 80 80 80 C80 53.93 80 27.86 80 1 C53.93 1 27.86 1 1 1 Z " fill="#DCF2FD" transform="translate(132,217)"/>
<path d="M0 0 C27.06 0 54.12 0 82 0 C82 27.06 82 54.12 82 82 C54.94 82 27.88 82 0 82 C0 54.94 0 27.88 0 0 Z M1 1 C1 27.07 1 53.14 1 80 C27.07 80 53.14 80 80 80 C80 53.93 80 27.86 80 1 C53.93 1 27.86 1 1 1 Z " fill="#DCF2FD" transform="translate(132,130)"/>
<path d="M0 0 C27.06 0 54.12 0 82 0 C82 27.06 82 54.12 82 82 C54.94 82 27.88 82 0 82 C0 54.94 0 27.88 0 0 Z M1 1 C1 27.07 1 53.14 1 80 C27.07 80 53.14 80 80 80 C80 53.93 80 27.86 80 1 C53.93 1 27.86 1 1 1 Z " fill="#DCF2FD" transform="translate(132,42)"/>
</svg>
